<svg width="358.2" height="91.54369099322629" viewBox="0 0 369.66666666666663 94.47417951934483" class="looka-1j8o68f">
    <defs id="SvgjsDefs1011"></defs>
    <g id="SvgjsG1012" featurekey="HKaMnE-0"
       transform="matrix(0.656410966470196,0,0,0.656410966470196,-6.925685055829186,1.6558699803080739)" fill="#00adb5">
        <g xmlns="http://www.w3.org/2000/svg" fill="#00adb5">
            <path d="m72.42 23.42 6.62-3.05a.46.46 0 0 1 .65.42v58.08a.46.46 0 0 1-.76.35L71.67 73a.46.46 0 0 0-.3-.11H20.15a.46.46 0 0 1-.44-.59l1.9-6.56a.46.46 0 0 1 .45-.33h49.63a.46.46 0 0 0 .46-.46V23.83a.46.46 0 0 1 .27-.41"></path>
            <path d="M58.6 36.88q.45-.01.69.17a.29.29 0 0 1-.11.51q-.99.25-1.54-.16-.35-.27-.35-.71v-1.5q0-.46-.44-.59-.57-.17-1.2.98-.24.43-.73.39-1.34-.1-1.7-1.52-.35-1.33 1.9-.34a.13.13 0 0 0 .15-.2q-.86-.99-1.29-2.24a.28.26-8.7 0 0-.26-.18h-1.47q-.35 0-.35-.36v-1.58q0-.47.45-.34l.59.17q.48.14.82-.22.63-.68.65-1.42.01-.6-.56-.76l-.42-.12q-.6-.18-.37-.76.39-.98 1.36-1.62.59-.38 1.03.17l.48.62a.96.96 0 0 0 1.72-.59v-1.09q0-.48.48-.48h2.11a.34.33 6.7 0 1 .33.41q-.3 1.19-.12 1.78a.68.67-13.3 0 0 .77.47q.86-.15 1.14-1.22a.47.47 0 0 1 .8-.2l1.55 1.71.04.06q.46 1.04-.77.9a.52.52 0 0 0-.56.63q.31 1.32-.14 3.08a.12.12 0 0 0 .22.09q1.32-2.27 2.39-1.11a.77.77 0 0 1 .09.93q-.96 1.57-2.58 1.53-.41-.01-.54.39-.05.15.03.46.11.45.55.58l.7.2q.64.18.29.74-.49.77-1.62 1.6-.45.32-.84-.06-.3-.28-.04-1.24.15-.55-.41-.54-.13 0-.27.04a.6.59-5.5 0 0-.44.53q-.14 1.77-1.89 1.45-.46-.09-.32.23.07.14-.03.27-.04.06.03.06m3.24-7.07a2.86 2.86 0 0 0-2.86-2.86 2.86 2.86 0 0 0-2.86 2.86 2.86 2.86 0 0 0 2.86 2.86 2.86 2.86 0 0 0 2.86-2.86M83.89 30.77v-6.53a.41.4 3.2 0 1 .45-.4c25.34 2.98 42.38 23.1 42 48.55q0 .29-.29.29h-6.92a.3.3 0 0 1-.3-.31c.65-21.08-13.92-37.43-34.53-41.11a.51.5 5.6 0 1-.41-.49"></path>
            <rect width="3.44" height="3.86" x="-1.72" y="-1.93" rx="1.22"
                  transform="rotate(42.8 -8.339 90.075)"></rect>
            <path d="M83.93 46.07v-6.84a.28.27-84.2 0 1 .33-.28c15.94 3.48 27.78 16.92 27.49 33.49a.26.25-90 0 1-.25.26h-6.51q-.26 0-.29-.27-1.89-19.51-20.41-25.85-.36-.13-.36-.51M48.84 41.36q.41 1.59 1.85 2.05.53.17.53.72v.44q0 .72.61.36.96-.56.07-1.87a1.4 1.39-3.9 0 0-.59-.51zq-.1-.68.02-.94A.77.77 0 0 1 50 40.1l2.45 1.65q.4.27.44.81.12 1.38.01 1.93-.37 1.88-2.09 1.65-.55-.07-.71.47l-.19.66a.55.55 0 0 1-1.03.07l-.15-.34q-.22-.46-.72-.53-1.01-.13-1.4-.39-.45-.29-.2-.77.61-1.15-.43-1.81-.58-.36 0-.71.89-.55 1.1-1.71.1-.58.67-.42.45.12 1.09.7m-.64 2.21q-.58.86.4 1.47a.47.47 0 0 0 .7-.25q.25-.73-.05-1.2a.63.63 0 0 0-1.05-.02M39.29 43.76l.31.09q.34.09.24.43l-.64 2.2q-.12.42-.55.52-.81.18-1.59 1.13-.3.35-.66.07-.7-.56-.8-.58a2.83 2.82-79.1 0 1-2.26-3.36q.34-1.64 2.6-2.68.92-.42 1.66-.01 1.19.68 1.21 1.56.02.49.48.63M133.79 44.47q.46-.36.71.16 6.19 13.03 5.5 27.81-.01.25-.27.25h-6.99q-.29 0-.28-.29c.2-8.03-.93-15.55-4.28-22.81a.75.74-31.9 0 1 .22-.9zM47.25 51.9c2.74 0 3.99-.81 6.29-2.16q1.5-.88 1.01.79l-2.51 8.65a.62.61-81.8 0 1-.59.45H24.49q-2 0-1.27-1.86l1.5-3.76q.83-2.08 3.05-2.09 15.42-.01 19.48-.02"></path>
            <path d="M89.95 72.38q-.99-5.74-5.78-8.98a.52.51-73.8 0 1-.23-.43v-7.66a.17.17 0 0 1 .24-.15Q95.59 60.3 97.2 72.37q.03.29-.26.29h-6.65q-.29 0-.34-.28"></path>
            <path d="m91.07 141.34-6.99-4.82a.35.35 0 0 1-.15-.28V72.23a.35.35 0 0 1 .6-.24l8.31 8.31a.35.35 0 0 0 .24.1h53.21a.35.35 0 0 1 .34.45l-1.99 6.84a.35.35 0 0 1-.33.25H91.97a.35.35 0 0 0-.35.35v52.76a.35.35 0 0 1-.55.29M45.83 90.75c1.16 19.86 14.57 33.9 33.71 37.87a.39.39 0 0 1 .32.38v6.97q0 .25-.25.21c-21.28-2.99-37.35-18.29-40.86-39.68q-.67-4.06-.37-15.32a.26.26 0 0 1 .26-.25h6.81q.26 0 .25.25-.12 5.17.13 9.57"></path>
            <path d="M59.7 89.28c1.74 11.8 8.91 20.23 19.9 24.24a.49.49 0 0 1 .32.46v6.95a.28.28 0 0 1-.36.27q-21.16-5.84-26.79-26.89-1.07-4.01-.65-12.81.02-.57.59-.57h6.3a.53.53 0 0 1 .53.54q-.13 5.83.16 7.81M31.52 81.29q-1.03 13.83 4.78 24.93.37.71-.26 1.2l-5.16 4.05q-.52.4-.83-.18-7.36-13.89-6.03-30.07.02-.24.26-.24h6.96q.3 0 .28.31"></path>
            <path d="M78.23 94.83q1.39 1.28 1.59 2.66.08.57.15 7.3.01 1.07-.9.51-13.54-8.24-11.87-24.01.02-.24.27-.24H74a.36.36 0 0 1 .36.36q-.17 9.7 3.87 13.42M115 101.49c-2.57.08-4.53.92-7.39 2.02a.33.33 0 0 1-.43-.4l2.43-8.37a1.18 1.18 0 0 1 1.13-.85h30.82q2 0 1.15 1.82l-1.78 3.82a3.4 3.31 12.4 0 1-3.07 1.91q-17.74-.12-22.86.05M130.04 106.7q.89.16 1.66 1.45a.51.51 0 0 1-.24.74q-1.07.43-.3 1.63.32.49-.23.67-.36.12-1.02.06-.6-.06-.63.56l-.02.39a.47.46-76.8 0 1-.64.41q-1.09-.48-2.29-.25a.87.86 66 0 1-.87-.34q-1.29-1.72-1.64-4.52a.44.44 0 0 1 .59-.47q.29.1.66.11.61.01.61-.6v-.88q0-.84.72-.42l.65.37a.66.65 40.8 0 0 .74-.05l.64-.5q.61-.47.77.28l.15.75q.11.5.69.61M110.91 108.28l.1-1.18q.05-.67.59-.54.89.22 1.76-.91a.6.6 0 0 1 .83-.11q.82.62 1.82.59.72-.03.44.63-.12.29-.11.71a.47.47 0 0 0 .65.43q.37-.15.81.01.58.22.05.53-1.33.8-.74 2.2.22.52-.33.66-1.21.31-1.79 1.01-.3.37-.76.23l-2.07-.6q-.51-.14-.61-.66-.22-1.13-.72-1.28-.63-.18-.55-.6.03-.17.33-.46.27-.25.3-.66M103.15 117.91h.34a.56.56 0 0 0 .56-.56v-1.43q0-.6.6-.6h1.59a.69.68-3.8 0 1 .68.59q.05.36.1 1.33.04.65.78.73a.71.7-76 0 0 .72-.44q.24-.57.59-.88a.53.53 0 0 1 .65-.04l.48.33q.61.42.02.88l-.93.74q-.22.17.01.32l.33.24q.19.12.33-.06.61-.81 1.29-.64a.41.41 0 0 1 .15.72l-1.19.93q-.28.22-.16.56.05.15.2.28.2.18.45.18.6.02 1.35.23.5.15.68.63.37.97-.68 1.88-.18.15-.35.06l-.42-.2a.27.23 38.8 0 1-.08-.42q.51-.35.65-.7.19-.49-.32-.33-1.75.55-1.69 2.1.03.56.54.8.71.34.99.68a.38.37 62.9 0 1-.19.6q-1.13.31-1.51 1.28a.27.26 43.1 0 1-.49.01q-.8-1.69-1.66-1.08-1.1.78-2.35 1.38a.42.41 58.1 0 0-.14.63l.2.26a.35.34 59.7 0 0 .39.11q.55-.19 1.14-.69.3-.25.3.14v.46q0 .2-.18.28-1.01.51-2.02.26-.6-.15-.6-.77v-1.14q0-.56-.56-.58-.75-.03-1.3.9a.6.59 26.5 0 1-.73.24q-1.1-.44-1.57-1.49-.08-.18.07-.3l.3-.24q.2-.16.31.08.34.73.81.79.62.09.39-.49-.47-1.18-1.35-2.81-.13-.24-.34-.3-.14-.04-.28-.02-.25.03-.18.28.17.62-.12.88-.47.43-.79-.12-.51-.88-.59-1.78-.06-.56.49-.67.5-.1.97-.11.58-.02.77-.21.1-.11.14-.25.08-.28-.1-.51l-1.11-1.43q-.46-.58.2-.92.92-.47 1.44-1.43.3-.53.84-.26.23.12.37.56.18.55.77.55m2.07-1.31q-.09.15-.17.3-.29.51.29.52.25 0 .48-.07a.37.37 0 0 0 .22-.51q-.08-.18-.26-.34-.34-.3-.56.1m-4.6 2.07a.39.38-77.7 0 0 .28.44q.61.18.99-.29.41-.5-.22-.62-.93-.18-1.05.47m4.025 6.33a2.86 2.55 111 0 0 3.406-1.756 2.86 2.55 111 0 0-1.356-3.584 2.86 2.55 111 0 0-3.406 1.756 2.86 2.55 111 0 0 1.356 3.584"></path>
            <path d="M106.18 120.8a.52.52 0 0 1 .77.56q-.12.57-.49.87-.49.4-.76-.18-.37-.77.48-1.25M104.86 123.3q.65-.61 1.1-.36a.39.39 0 0 1 .08.62q-.55.52-1.16.1a.23.23 0 0 1-.02-.36"></path>
        </g>
    </g>
    <g id="SvgjsG1013" featurekey="J3GnXt-0"
       transform="matrix(3.7171279577030356,0,0,3.7171279577030356,96.23482913759027,8.440662453730695)" fill="#eeeeee">
        <path d="M6.9 5.84 c1.3867 0 2.4734 0.34666 3.26 1.04 s1.18 1.6667 1.18 2.92 c0 0.94666 -0.32334 1.7733 -0.97 2.48 s-1.4767 1.1267 -2.49 1.26 l-0.02 0 l4.02 6.46 l-2.4 0 l-3.6 -6.24 l-2.14 0 l0 6.24 l-1.92 0 l0 -14.16 l5.08 0 z M6.34 12.08 c1 0 1.7433 -0.18336 2.23 -0.55002 s0.73 -0.94332 0.73 -1.73 c0 -1.52 -0.98666 -2.28 -2.96 -2.28 l-2.6 0 l0 4.56 l2.6 0 z M17.92 10.28 c1.4533 0 2.5834 0.45664 3.39 1.37 s1.2167 2.17 1.23 3.77 l0 0.5 l-7.6 0 c0 0.77334 0.31 1.4233 0.93 1.95 s1.3767 0.79666 2.27 0.81 c0.98666 0 1.8533 -0.47334 2.6 -1.42 l1.36 1.04 c-1.0133 1.2933 -2.4134 1.94 -4.2 1.94 c-1.4533 0 -2.6234 -0.46334 -3.51 -1.39 s-1.3433 -2.1234 -1.37 -3.59 c0 -1.4133 0.45666 -2.59 1.37 -3.53 s2.09 -1.4233 3.53 -1.45 z M20.62 14.48 c-0.02666 -0.89334 -0.28 -1.5767 -0.76 -2.05 s-1.14 -0.71 -1.98 -0.71 c-0.56 0 -1.0633 0.13666 -1.51 0.41 s-0.79666 0.62668 -1.05 1.06 s-0.38 0.86334 -0.38 1.29 l5.68 0 z M27.200000000000003 7.859999999999999 l-0.000019531 2.66 l2.58 0 l0 1.56 l-2.58 0 l0 4.56 c0 0.61334 0.08666 1.0867 0.26 1.42 s0.54 0.5 1.1 0.5 c0.53334 0 0.96 -0.09334 1.28 -0.28 l0 1.64 c-0.34666 0.18666 -0.89332 0.29332 -1.64 0.31998 c-0.72 0 -1.2767 -0.11 -1.67 -0.33 s-0.68 -0.52666 -0.86 -0.92 s-0.27 -1.01 -0.27 -1.85 l0 -5.06 l-2.08 0 l0 -1.56 l2.08 0 l0 -2.66 l1.8 0 z M36.78 10.28 c0.33334 0 0.6 0.04 0.8 0.12 l-0.08 1.94 c-0.34666 -0.09334 -0.64666 -0.14 -0.9 -0.14 c-1.7733 0 -2.6734 0.98666 -2.7 2.96 l0 4.84 l-1.8 0 l0 -9.48 l1.8 0 l0 1.46 l0.04 0 c0.24 -0.50666 0.62666 -0.91666 1.16 -1.23 s1.0933 -0.47 1.68 -0.47 z M43.72 10.28 c1.4 0 2.5866 0.48338 3.56 1.45 s1.4667 2.1434 1.48 3.53 c0 1.4 -0.48666 2.5734 -1.46 3.52 s-2.1666 1.4333 -3.58 1.46 c-1.3867 0 -2.5666 -0.48 -3.54 -1.44 s-1.4733 -2.14 -1.5 -3.54 c0 -1.3733 0.48334 -2.54 1.45 -3.5 s2.1634 -1.4533 3.59 -1.48 z M40.6 15.26 c0 0.97334 0.28664 1.7633 0.85998 2.37 s1.3267 0.91666 2.26 0.93 c0.94666 0 1.7 -0.30334 2.26 -0.91 s0.84666 -1.4033 0.86 -2.39 c0 -0.97334 -0.28 -1.7633 -0.84 -2.37 s-1.3267 -0.91666 -2.3 -0.93 c-0.94666 0 -1.7 0.31334 -2.26 0.94 s-0.84 1.4133 -0.84 2.36 z M56.480000000000004 5.84 c1.2933 0 2.32 0.32 3.08 0.96 s1.14 1.5 1.14 2.58 c0 1.5333 -0.81334 2.5734 -2.44 3.12 l0 0.04 l0.02 0 c0.92 0.10666 1.6567 0.49 2.21 1.15 s0.83 1.45 0.83 2.37 c0 1.1867 -0.45666 2.14 -1.37 2.86 s-2.09 1.08 -3.53 1.08 l-4.94 0 l0 -14.16 l5 0 z M56.080000000000005 11.72 c0.8 0 1.43 -0.18334 1.89 -0.55 s0.69 -0.89 0.69 -1.57 c0 -0.64 -0.2 -1.1467 -0.6 -1.52 s-0.92666 -0.56 -1.58 -0.56 l-3.08 0 l0 4.2 l2.68 0 z M56.300000000000004 18.32 c0.94666 0 1.68 -0.22 2.2 -0.66 s0.78 -1.02 0.78 -1.74 c0 -0.8 -0.26334 -1.42 -0.79 -1.86 s-1.27 -0.66 -2.23 -0.66 l-2.86 0 l0 4.92 l2.9 0 z M64.66000000000001 5.800000000000001 c0.36 0 0.67002 0.13002 0.93002 0.39002 s0.39 0.57 0.39 0.93 c0 0.37334 -0.13334 0.68668 -0.4 0.94002 s-0.57332 0.38 -0.91998 0.38 c-0.37334 0 -0.68668 -0.12666 -0.94002 -0.38 s-0.38 -0.56668 -0.38 -0.94002 s0.13334 -0.68668 0.4 -0.94002 s0.57332 -0.38 0.91998 -0.38 z M65.56 10.52 l0 9.48 l-1.8 0 l0 -9.48 l1.8 0 z M70.92 7.859999999999999 l-0.000019531 2.66 l2.58 0 l0 1.56 l-2.58 0 l0 4.56 c0 0.61334 0.08666 1.0867 0.26 1.42 s0.54 0.5 1.1 0.5 c0.53334 0 0.96 -0.09334 1.28 -0.28 l0 1.64 c-0.34666 0.18666 -0.89332 0.29332 -1.64 0.31998 c-0.72 0 -1.2767 -0.11 -1.67 -0.33 s-0.68 -0.52666 -0.86 -0.92 s-0.27 -1.01 -0.27 -1.85 l0 -5.06 l-2.08 0 l0 -1.56 l2.08 0 l0 -2.66 l1.8 0 z"></path>
    </g>
</svg>